<svg id="Capa_1" data-name="Capa 1" xmlns="http://www.w3.org/2000/svg" viewBox="0 0 1200 1200"><circle cx="363.02" cy="599.89" r="124.11" fill="#e63947"/><path d="M348.24,625.42c-1.59,1.9-1.45,5.17,3.49,7.92,9.29,5.2,19.83,1.25,24.41-1.22,3.05-1.64,7.41-5.11,14.23-13.19,6.38-7.58,13.63-15,16.32-16.81,1.9-1.26,6.34-3.91,10.87-1.91,7.84,3.45,10.57,14.79,10.55,21.09a85.71,85.71,0,0,1-8.91,36.89,4.42,4.42,0,0,0,4,6.37H433a16.32,16.32,0,0,0,15.67-11.83c8.31-29,9.21-62.8,8.6-84.93a32.54,32.54,0,0,0-23.3-30.37l-3.44-1c-13.71-4.06-30.39,4.15-35.7,17.43-6.51,16.28-9.18,29.66-16.5,42.72-6.25,11.16-13.17,18.6-20.15,23.48C353,623.6,349.85,623.53,348.24,625.42Zm56.27-38.23c-1.51-4.73-1.37-13.53,1.63-21.46a11.89,11.89,0,0,1,5.66-6.2,16.66,16.66,0,0,1,11.34-.94,14.6,14.6,0,0,1,9.71,9.85,20.89,20.89,0,0,1-.43,10.32A19.58,19.58,0,0,1,425,589.09c-3.84,2.66-9.5,3.7-15.29,3.18C407,592,405.18,589.29,404.51,587.19Z" fill="#f6bd60"/><path d="M356.52,610.2c1,4.44-7.26,8.67-13.82,8.34-8.42-.43-11.17-3.22-15.29-6.27-1.64-1.22-9.29-9.92-9.29-9.92a7.65,7.65,0,0,0-9.63-2.14c-7.77,3.45-10.57,14.79-10.55,21.09a88.94,88.94,0,0,0,8.58,37,4.4,4.4,0,0,1-4,6.28h-9.45a16.26,16.26,0,0,1-15.64-11.71c-8.34-29-9.24-62.89-8.63-85.06a32.53,32.53,0,0,1,23.29-30.36l3.85-1.14c14.2-4.21,34.3,5.32,37.16,19.84,3.06,15.52,4,21.87,7.81,31C346.54,600.58,355.82,607.21,356.52,610.2Zm-35-23.29c1.5-4.68,1.35-13.4-1.61-21.26a11.86,11.86,0,0,0-5.61-6.14,16.54,16.54,0,0,0-11.24-.93,14.47,14.47,0,0,0-9.61,9.75,21,21,0,0,0,.41,10.23,19.44,19.44,0,0,0,7.33,10.22c3.79,2.64,9.4,3.68,15.15,3.17C319,591.7,320.89,589,321.55,586.91Z" fill="#f6bd60"/><path d="M755.38,579.84a9.48,9.48,0,0,1,2.88-7,10,10,0,0,1,7.37-2.87,9.75,9.75,0,0,1,7.29,2.87,9.61,9.61,0,0,1,2.81,7,9.73,9.73,0,0,1-10.1,10,10,10,0,0,1-7.37-2.88A9.63,9.63,0,0,1,755.38,579.84Z" fill="#e63947"/><path d="M774.42,634.44a23.61,23.61,0,0,1-3.24.59,36.21,36.21,0,0,1-4.63.27,13,13,0,0,1-7.44-1.92c-1.5-1-2.29-3.61-2.29-6.6v-28.2a30.21,30.21,0,0,1,3.24-.64,29.79,29.79,0,0,1,4.63-.32,13,13,0,0,1,7.49,2c1.5,1.07,2.23,3.63,2.23,6.62Z" fill="#e63947"/><path d="M567.92,617.75a11.67,11.67,0,0,1-4,2.08,18.49,18.49,0,0,1-5.58.78,20.22,20.22,0,0,1-7-1,5.83,5.83,0,0,1-3.7-3.64q-4.15-12.07-7.08-20.07T536,582h-.52q-.39,8.06-.65,14.75t-.46,13.06q-.2,6.36-.45,12.86T533.23,637a25.92,25.92,0,0,1-3.84,1,27.11,27.11,0,0,1-5,.45q-5.07,0-7.92-1.75c-1.91-1.17-2.86-3.19-2.86-6,0-1.65.06-3.92.19-6.83s.3-6.23.52-10,.48-7.82.78-12.15.61-8.73.91-13.19.59-8.88.85-13.25.51-8.43.78-12.15a13.16,13.16,0,0,1,4.22-3.19c2.12-1.16,5.09-1.75,8.9-1.75q6.11,0,9.61,1.95a12.28,12.28,0,0,1,5.33,6.37q1.42,3.51,3,7.86t3.12,8.9q1.56,4.54,3.05,9t2.8,8.25h.65q3.63-11.43,7.27-22.15t6.37-18a20.76,20.76,0,0,1,4.61-1.56,27.43,27.43,0,0,1,6.17-.65,21.73,21.73,0,0,1,9.36,1.69,6.93,6.93,0,0,1,4.16,4.94q.51,2.6,1.17,7.92t1.3,12.22q.64,6.89,1.3,14.49t1.16,14.68q.52,7.08.91,12.93c.26,3.9.44,6.93.52,9.09a16,16,0,0,1-4.15,1.76,22.4,22.4,0,0,1-5.59.58,15.94,15.94,0,0,1-7.34-1.56c-2-1-3.14-3.07-3.32-6.1q-.9-15.07-1.23-27.62t-.72-20.59h-.64q-1.56,5.46-4.49,13.77T567.92,617.75Z" fill="#e63947"/><path d="M633.53,610.78a12.38,12.38,0,0,0,6.26,7.6,22.85,22.85,0,0,0,10.35,2.24,33.77,33.77,0,0,0,10.09-1.47,34.5,34.5,0,0,0,7.67-3.26,10.92,10.92,0,0,1,3.2,3.32,8.32,8.32,0,0,1,1.27,4.48,7.75,7.75,0,0,1-1.79,5.11,13.81,13.81,0,0,1-4.92,3.64,28.08,28.08,0,0,1-7.41,2.17,57.85,57.85,0,0,1-9.39.71,44.37,44.37,0,0,1-13.93-2.11,30.58,30.58,0,0,1-11-6.26,28.71,28.71,0,0,1-7.22-10.42,37.81,37.81,0,0,1-2.62-14.7,35.22,35.22,0,0,1,2.62-14.18,28.56,28.56,0,0,1,7-10,27.76,27.76,0,0,1,10.09-5.81,37.38,37.38,0,0,1,11.7-1.85,34.72,34.72,0,0,1,12,2,27.63,27.63,0,0,1,9.32,5.55,25.09,25.09,0,0,1,6.07,8.57A26.84,26.84,0,0,1,675.06,597q0,4.1-2.18,6.13a11.34,11.34,0,0,1-6.13,2.69Zm12.14-26.32a12.93,12.93,0,0,0-9.14,3.38q-3.64,3.39-4.28,9.78l24.41-4a10.49,10.49,0,0,0-2.94-6.27C651.93,585.44,649.24,584.46,645.67,584.46Z" fill="#e63947"/><path d="M710.7,622.38c4.42,0,7.58-.78,9.46-2.32a7,7,0,0,0,2.82-5.58,6,6,0,0,0-2.2-4.82,19.67,19.67,0,0,0-6.57-3.19l-6.39-2a77.43,77.43,0,0,1-9.52-3.57,28.67,28.67,0,0,1-7.27-4.63,19.41,19.41,0,0,1-4.7-6.39,21.54,21.54,0,0,1-1.69-9q0-10.53,8-16.66t22.11-6.14a61.7,61.7,0,0,1,10,.75,29.09,29.09,0,0,1,7.83,2.32,15.11,15.11,0,0,1,5.13,3.82,7.93,7.93,0,0,1,1.88,5.26,9,9,0,0,1-1.44,5.08,15.79,15.79,0,0,1-3.32,3.69,26.38,26.38,0,0,0-7.64-3.38,37.27,37.27,0,0,0-10.4-1.38q-6,0-8.89,1.88a5.54,5.54,0,0,0-2.88,4.76,4.36,4.36,0,0,0,1.88,3.82,24.28,24.28,0,0,0,5.88,2.69l6.77,2.26A75.2,75.2,0,0,1,729.8,594a31.37,31.37,0,0,1,7.46,5.26,19.47,19.47,0,0,1,4.51,6.77,23.69,23.69,0,0,1,1.5,8.7,21.92,21.92,0,0,1-2.07,9.59,20.32,20.32,0,0,1-6.14,7.45,30.23,30.23,0,0,1-10,4.89,48.56,48.56,0,0,1-13.71,1.75,56.05,56.05,0,0,1-10.65-.94,33.26,33.26,0,0,1-8.46-2.69,16.38,16.38,0,0,1-5.64-4.32,9.09,9.09,0,0,1-2.06-5.83,8.33,8.33,0,0,1,1.94-5.64,16.77,16.77,0,0,1,4.32-3.63,34.31,34.31,0,0,0,8.46,4.89A29.34,29.34,0,0,0,710.7,622.38Z" fill="#e63947"/><path d="M807.52,634.28a26,26,0,0,1-3.58.7,37.92,37.92,0,0,1-5.11.32q-5.76,0-8.31-1.85T788,626.23v-39a10.43,10.43,0,0,1,1.79-6.13,16,16,0,0,1,5-4.48,36.39,36.39,0,0,1,10.16-4,51.65,51.65,0,0,1,12.45-1.47q13.29,0,13.3,8.94a11.93,11.93,0,0,1-.64,4,17.58,17.58,0,0,1-1.41,3.06,34.65,34.65,0,0,0-7.16-.64,31.29,31.29,0,0,0-7.41.9,26.33,26.33,0,0,0-6.51,2.43Z" fill="#e63947"/><path d="M892.26,571.42a12.08,12.08,0,0,1,6.71,1.79c1.83,1.19,2.74,3.2,2.74,6a26.28,26.28,0,0,1-1,5.75c-.63,2.55-1.47,5.45-2.49,8.69s-2.19,6.71-3.51,10.41-2.69,7.33-4.09,10.86-2.79,6.84-4.15,9.91-2.6,5.62-3.71,7.66a13.92,13.92,0,0,1-4.66,2,27.36,27.36,0,0,1-7,.83,22.9,22.9,0,0,1-7.67-1.15,8.14,8.14,0,0,1-4.6-3.71c-.76-1.45-1.68-3.45-2.74-6s-2.22-5.43-3.45-8.62-2.5-6.6-3.77-10.23-2.52-7.24-3.71-10.86-2.3-7.07-3.32-10.35-1.84-6.24-2.43-8.88a12.7,12.7,0,0,1,4.28-2.87,14.51,14.51,0,0,1,5.94-1.22,11.68,11.68,0,0,1,6.65,1.73q2.55,1.73,3.83,6.32l5.62,20.19q1.55,5.37,3.07,10.55t2.3,8.11h.64q2.94-10,5.88-21.72t5.49-23A18.67,18.67,0,0,1,892.26,571.42Z" fill="#e63947"/><path d="M929.07,610.78a12.42,12.42,0,0,0,6.26,7.6,22.85,22.85,0,0,0,10.35,2.24,33.88,33.88,0,0,0,10.1-1.47,34.4,34.4,0,0,0,7.66-3.26,10.8,10.8,0,0,1,3.2,3.32,8.33,8.33,0,0,1,1.28,4.48,7.81,7.81,0,0,1-1.79,5.11,14,14,0,0,1-4.92,3.64,28.31,28.31,0,0,1-7.41,2.17,58.07,58.07,0,0,1-9.4.71,44.41,44.41,0,0,1-13.93-2.11,30.58,30.58,0,0,1-11-6.26,28.83,28.83,0,0,1-7.22-10.42,38,38,0,0,1-2.62-14.7,35.39,35.39,0,0,1,2.62-14.18,28.56,28.56,0,0,1,7-10,27.8,27.8,0,0,1,10.1-5.81A37.36,37.36,0,0,1,941.08,570,34.64,34.64,0,0,1,953,572a27.68,27.68,0,0,1,9.33,5.55,25.09,25.09,0,0,1,6.07,8.57A27,27,0,0,1,970.6,597c0,2.73-.73,4.77-2.17,6.13a11.37,11.37,0,0,1-6.14,2.69Zm12.14-26.32a12.93,12.93,0,0,0-9.14,3.38q-3.65,3.39-4.28,9.78l24.41-4a10.43,10.43,0,0,0-2.94-6.27Q946.58,584.47,941.21,584.46Z" fill="#e63947"/></svg>